<?xml version="1.0" encoding="UTF-8" standalone="no"?>
<svg width="744px" height="220px" viewBox="0 0 744 220" version="1.1" xmlns="http://www.w3.org/2000/svg" xmlns:xlink="http://www.w3.org/1999/xlink" xmlns:sketch="http://www.bohemiancoding.com/sketch/ns">
    <title>Slice 1@2x</title>
    <description>Created with Sketch (http://www.bohemiancoding.com/sketch)</description>
    <defs></defs>
    <g id="Page-1" stroke="none" stroke-width="1" fill="none" fill-rule="evenodd" sketch:type="MSPage">
        <g id="app-store-white" sketch:type="MSLayerGroup">
            <g id="Page-1" sketch:type="MSShapeGroup">
                <g id="app-store-white">
                    <g id="Group">
                        <path d="M717.927991,220 L26.0759997,220 C11.6999999,220 0,208.352 0,194.028 L0,26 C0,11.664 11.6999999,0 26.0759997,0 L717.923991,0 C732.283991,0 743.999991,11.664 743.999991,26 L743.999991,194.028 C744.011991,208.352 732.291991,220 717.927991,220 L717.927991,220 L717.927991,220 Z" id="Shape" fill="#FFFFFF"></path>
                        <g id="Shape" transform="translate(71.000000, 34.000000)" fill="#F56623">
                            <path d="M95.2123881,74.5927588 C95.0529346,56.9428506 109.706714,48.3568393 110.376419,47.9586013 C102.076862,35.8959723 89.2129491,34.247267 84.696428,34.1158484 C73.8934515,32.9808701 63.4133684,40.5593393 57.9122217,40.5593393 C52.2994575,40.5593393 43.8245025,34.2233727 34.6918017,34.4105446 C22.9400768,34.5897517 11.9417697,41.3757272 5.91044002,51.9131047 C-6.53490781,73.3940624 2.74528749,104.962389 14.6724114,122.325566 C20.6359733,130.835912 27.6080788,140.325923 36.7288206,139.991403 C45.6542318,139.629007 48.9868105,134.324477 59.7578963,134.324477 C70.4293236,134.324477 73.5585991,139.991403 82.8627124,139.776355 C92.4418831,139.629007 98.4732128,131.23415 104.229485,122.652121 C111.121864,112.911219 113.892369,103.305719 114,102.811904 C113.776765,102.736238 95.399746,95.7391966 95.2123881,74.5927588 L95.2123881,74.5927588 L95.2123881,74.5927588 Z"></path>
                            <path d="M76.7574702,22.2089076 C81.5036588,16.2715209 84.751881,8.19304064 83.8491591,0 C76.9782231,0.304177497 68.3846257,4.7522796 63.4373942,10.5593045 C59.0617551,15.675017 55.1512741,24.0616251 56.1604305,31.9504883 C63.8789001,32.52329 71.8023546,28.0554362 76.7574702,22.2089076 L76.7574702,22.2089076 L76.7574702,22.2089076 Z"></path>
                            <g id="Group" transform="translate(163.000000, 65.000000)">
                                <path d="M62,74 L49.4678295,74 L42.6029716,52.5563996 L18.7401809,52.5563996 L12.1997416,74 L0,74 L23.6465116,1 L38.249354,1 L62,74 L62,74 Z M41,44 L34.7043054,24.8299088 C34.0381803,22.8719757 32.7831032,18.2579939 30.9512591,11 L30.7278635,11 C29.9886271,14.121459 28.8066613,18.7354407 27.1900894,24.8299088 L21,44 L41,44 L41,44 Z" id="Shape"></path>
                                <path d="M122,46.7350409 C122,55.6786056 119.555783,62.7489638 114.659334,67.9381443 C110.27577,72.5573919 104.826367,74.8650229 98.3311596,74.8650229 C91.3150534,74.8650229 86.2703488,72.3820278 83.2050597,67.4080667 L83.2050597,95 L71.4367536,95 L71.4367536,38.3733659 C71.4367536,32.757732 71.2884978,26.9986183 71,21.088054 L81.3498586,21.088054 L82.0069925,29.4218302 L82.2273727,29.4218302 C86.1541483,23.1406101 92.1084224,20 100.102216,20 C106.353001,20 111.570003,22.4511106 115.741201,27.3533319 C119.908391,32.2714954 122,38.7280795 122,46.7350409 L122,46.7350409 L122,46.7350409 Z M110,46.6803333 C110,41.6130235 108.833981,37.4336768 106.485804,34.1383469 C103.92379,30.7127823 100.482218,29 96.1691572,29 C93.2440227,29 90.589211,29.9550537 88.2127914,31.8375356 C85.8323371,33.7358036 84.2789898,36.2181539 83.5487149,39.2885332 C83.1815601,40.7211138 83,41.8892787 83,42.8088139 L83,51.4950669 C83,55.2758167 84.1902271,58.4724841 86.5706814,61.0890156 C88.9511357,63.6937075 92.0416916,65 95.8423491,65 C100.304692,65 103.778542,63.3108967 106.263897,59.9642622 C108.753288,56.6136812 110,52.1857049 110,46.6803333 L110,46.6803333 L110,46.6803333 Z" id="Shape"></path>
                                <path d="M183,46.7350409 C183,55.6786056 180.556167,62.7489638 175.660487,67.9381443 C171.273606,72.5573919 165.829065,74.8650229 159.326866,74.8650229 C152.311862,74.8650229 147.26795,72.3820278 144.203142,67.4080667 L144.203142,95 L132.436685,95 L132.436685,38.3733659 C132.436685,32.757732 132.288452,26.9986183 132,21.088054 L142.348233,21.088054 L143.005263,29.4218302 L143.225609,29.4218302 C147.143755,23.1406101 153.1011,20 161.097643,20 C167.339434,20 172.555617,22.4511106 176.742184,27.3533319 C180.900707,32.2714954 183,38.7280795 183,46.7350409 L183,46.7350409 L183,46.7350409 Z M171,46.6803333 C171,41.6130235 169.826087,37.4336768 167.482295,34.1383469 C164.920663,30.7127823 161.491708,29 157.179292,29 C154.254594,29 151.600179,29.9550537 149.216047,31.8375356 C146.835948,33.7358036 145.286867,36.2181539 144.556701,39.2885332 C144.193635,40.7211138 144,41.8892787 144,42.8088139 L144,51.4950669 C144,55.2758167 145.194083,58.4724841 147.56208,61.0890156 C149.942178,63.689761 153.032273,65 156.844464,65 C161.314209,65 164.787539,63.3108967 167.264455,59.9642622 C169.753474,56.6136812 171,52.1857049 171,46.6803333 L171,46.6803333 L171,46.6803333 Z" id="Shape"></path>
                                <path d="M251,53.488403 C251,59.6903031 248.83943,64.7298445 244.549947,68.6229499 C239.829142,72.870336 233.236634,75 224.788252,75 C216.980918,75 210.720805,73.4913221 206,70.4620243 L208.686862,60.737222 C213.783591,63.7705005 219.38287,65.2791784 225.480742,65.2791784 C229.865195,65.2791784 233.272248,64.2840083 235.701899,62.3056101 C238.139465,60.3232313 239.37012,57.6760788 239.37012,54.3681333 C239.37012,51.4065071 238.349191,48.9265432 236.350862,46.9083382 C234.340661,44.8941139 231.012751,43.0152327 226.33943,41.2915981 C213.637179,36.534685 207.278139,29.5764556 207.278139,20.428852 C207.278139,14.4538506 209.525765,9.55761371 214.005188,5.73217982 C218.488568,1.91072661 224.428157,0 231.823954,0 C238.424376,0 243.928684,1.15439732 248.293352,3.45921129 L245.376979,12.9730375 C241.265565,10.7398758 236.627858,9.62528528 231.436159,9.62528528 C227.336616,9.62528528 224.119504,10.6363781 221.820436,12.6506024 C219.88542,14.44987 218.904063,16.6472056 218.904063,19.2505706 C218.904063,22.1246218 220.019961,24.5090494 222.247802,26.3839499 C224.17886,28.1075845 227.700668,29.9864657 232.79344,32.00069 C239.041681,34.5284221 243.631903,37.4741256 246.572019,40.8577039 C249.527963,44.2373016 251,48.4568229 251,53.488403 L251,53.488403 L251,53.488403 Z" id="Shape"></path>
                                <path d="M290,29.9600669 L277.131644,29.9600669 L277.131644,55.5794783 C277.131644,62.0943115 279.39692,65.3457291 283.943368,65.3457291 C286.029806,65.3457291 287.758569,65.1697606 289.129657,64.8018265 L289.451565,73.7042321 C287.150522,74.5680774 284.122206,75 280.374565,75 C275.764531,75 272.15996,73.5882529 269.560854,70.7607593 C266.969697,67.9332657 265.66617,63.1981138 265.66617,56.5353071 L265.66617,29.9360712 L258,29.9360712 L258,21.137647 L265.66617,21.137647 L265.66617,11.4753775 L277.131644,8 L277.131644,21.137647 L290,21.137647 L290,29.9600669 L290,29.9600669 Z" id="Shape"></path>
                                <path d="M349,47.0063949 C349,55.1119105 346.667207,61.7665867 342.005637,66.9704237 C337.131264,72.3301359 330.646823,75 322.564358,75 C314.762953,75 308.563586,72.4340528 303.938151,67.3061551 C299.312717,62.166267 297,55.6954436 297,47.8856914 C297,39.7122302 299.389005,33.0215827 304.150954,27.813749 C308.924948,22.6059153 315.353177,20 323.435642,20 C331.225002,20 337.480581,22.569944 342.218439,27.7058353 C346.74751,32.6818545 349,39.1127098 349,47.0063949 L349,47.0063949 L349,47.0063949 Z M337,47.8871207 C337,43.0131551 335.938197,38.8366221 333.810537,35.3373647 C331.314083,31.1124549 327.739615,29 323.111449,29 C318.341439,29 314.685917,31.1124549 312.193516,35.3373647 C310.061803,38.8366221 309,43.0857203 309,48.1088479 C309,52.9868449 310.061803,57.1795035 312.193516,60.6626353 C314.766971,64.8875451 318.357649,67 323.010132,67 C327.561297,67 331.12766,64.8431997 333.70922,60.5578188 C335.901722,56.9779334 337,52.7691492 337,47.8871207 L337,47.8871207 L337,47.8871207 Z" id="Shape"></path>
                                <path d="M386,31.4247735 C384.848502,31.2082281 383.617863,31.0999554 382.335783,31.0999554 C378.248163,31.0999554 375.08649,32.6558741 372.858677,35.7877618 C370.927643,38.5467102 369.958168,42.0274766 369.958168,46.2380811 L369.958168,74 L358.336348,74 L358.336348,37.7527105 C358.336348,31.6613694 358.221594,26.1033715 358,21.0947572 L368.12606,21.0947572 L368.549463,31.2202584 L368.869983,31.2202584 C370.100622,27.7394921 372.031656,24.9324224 374.682872,22.8351404 C377.270774,20.9423734 380.0684,20 383.083663,20 C384.15602,20 385.129452,20.0761919 385.988129,20.2165454 L386,31.4247735 L386,31.4247735 Z" id="Shape"></path>
                                <path d="M439,45.0968541 C439,47.1996068 438.863977,48.9739295 438.571927,50.4238276 L403.317926,50.4238276 C403.449949,55.6426595 405.15824,59.6438975 408.434797,62.3954996 C411.407303,64.8507137 415.247957,66.0843286 419.96476,66.0843286 C425.185649,66.0843286 429.946459,65.2592485 434.231188,63.589062 L436.071502,71.7357268 C431.06665,73.9145791 425.157644,75 418.340483,75 C410.139088,75 403.701992,72.5888436 399.017194,67.7745412 C394.344399,62.9562336 392,56.4797553 392,48.3651325 C392,40.402709 394.17637,33.766021 398.537113,28.4750947 C403.10189,22.8236965 409.27094,20 417.02826,20 C424.649557,20 430.42254,22.8236965 434.343207,28.4750947 C437.439734,32.9529566 439,38.5042237 439,45.0968541 L439,45.0968541 L439,45.0968541 Z M426.993932,42 C427.076318,38.4979873 426.319152,35.4790109 424.757742,32.9269695 C422.764786,29.6382979 419.692966,28 415.581514,28 C411.815299,28 408.743479,29.5980449 406.40921,32.8102358 C404.490794,35.3622772 403.34916,38.4295572 403,41.9879241 L426.993932,42 L426.993932,42 Z" id="Shape"></path>
                            </g>
                            <g id="Group" transform="translate(170.000000, 2.000000)">
                                <path d="M8.55407047,39 C5.24503848,39 2.38153098,38.8380921 0,38.5668964 L0,2.75691937 C3.08626974,2.27119571 6.43985419,2 10.072904,2 C23.7181045,2 30,8.69489115 30,19.6074828 C30,32.195821 22.5759417,39 8.55407047,39 L8.55407047,39 L8.55407047,39 Z M10.715927,7 C8.87091687,7 7.30164451,7.10628371 6,7.37002478 L6,33.8425426 C6.70556432,33.9488264 8.05586844,34 9.95359315,34 C18.9029061,34 24,29.0637119 24,19.8170287 C24,11.5741362 19.3935571,7 10.715927,7 L10.715927,7 L10.715927,7 Z" id="Shape"></path>
                                <path d="M48.2898653,38 C40.8311072,38 36,32.3525499 36,24.6855876 C36,16.6953437 40.9371559,11 48.7101324,11 C56.0589141,11 60.9999977,16.3760532 60.9999977,24.2625277 C61.0039255,32.3525499 55.9096604,38 48.2898653,38 L48.2898653,38 L48.2898653,38 Z M49.0577466,15 C44.7554499,15 42,18.9849268 42,24.5531869 C42,30.0150732 44.8131988,34 48.9999977,34 C53.1867965,34 55.9999954,29.7409561 55.9999954,24.4427218 C56.0041203,19.042205 53.2486704,15 49.0577466,15 L49.0577466,15 L49.0577466,15 Z" id="Shape"></path>
                                <path d="M105,12 L96.7986192,38 L91.4548062,38 L88.0563994,26.7082048 C87.1926713,23.8732264 86.4944238,21.0903763 85.9495486,18.3115361 L85.8365374,18.3115361 C85.4087095,21.1465145 84.5974509,23.9855028 83.7337228,26.7082048 L80.1173659,38 L74.7170473,38 L67,12 L72.9895911,12 L75.9601699,24.3624306 C76.6624535,27.3056755 77.251726,30.0845157 77.7400956,32.7109809 L77.8531067,32.7109809 C78.2809347,30.5215916 78.9832183,27.78686 80.012427,24.4185688 L83.7377589,12.0080197 L88.4882634,12.0080197 L92.0521508,24.1539173 C92.9158789,27.0971622 93.6141264,29.9882788 94.1590016,32.7149907 L94.31641,32.7149907 C94.6958046,30.0404072 95.2891131,27.2014189 96.0963356,24.1539173 L99.2808285,12.0080197 L105,12 L105,12 Z" id="Shape"></path>
                                <path d="M134.991927,37 L129.163215,37 L129.163215,22.3695981 C129.163215,17.8634028 127.383117,15.6083409 123.875395,15.6083409 C120.420147,15.6083409 118.046683,18.4919915 118.046683,21.8470837 L118.046683,37 L112.217971,37 L112.217971,18.8062859 C112.217971,16.5551526 112.16146,14.1390148 112,11.5185857 L117.12636,11.5185857 L117.400842,15.4511937 L117.562303,15.4511937 C119.132503,12.7286189 122.313268,11 125.877501,11 C131.383292,11 135,15.0897552 135,21.744938 L134.991927,37 L134.991927,37 Z" id="Shape"></path>
                                <path d="M151,38 L145,38 L145,0 L151,0 L151,38 L151,38 Z" id="Shape"></path>
                                <path d="M171.291796,38 C163.839723,38 159,32.3525499 159,24.6855876 C159,16.6953437 163.937932,11 171.708201,11 C179.062066,11 183.999998,16.3760532 183.999998,24.2625277 C184.003926,32.3525499 178.904932,38 171.291796,38 L171.291796,38 L171.291796,38 Z M172.05982,15 C167.756259,15 165,18.9849268 165,24.5531869 C165,30.0150732 167.818151,34 171.997928,34 C176.194209,34 178.999981,29.7409561 178.999981,24.4427218 C179.008234,19.042205 176.256101,15 172.05982,15 L172.05982,15 L172.05982,15 Z" id="Shape"></path>
                                <path d="M206.876897,37.4133905 L206.463744,34.4324564 L206.310287,34.4324564 C204.575042,36.8307715 202.044969,38 198.834177,38 C194.254075,38 191,34.7516997 191,30.3820573 C191,23.9971918 196.469365,20.6930239 205.940416,20.6930239 L205.940416,20.214159 C205.940416,16.8062371 204.157954,15.0982855 200.632378,15.0982855 C198.110174,15.0982855 195.89882,15.7407626 193.955031,17.0177357 L192.802136,13.2386935 C195.166948,11.7462312 198.114109,11 201.580663,11 C208.25801,11 211.630129,14.5675436 211.630129,21.7066213 L211.630129,31.2360331 C211.630129,33.8498374 211.744238,35.8730417 212,37.4133905 L206.876897,37.4133905 L206.876897,37.4133905 Z M206.995849,25 C200.337484,25 197,26.5045239 197,30.0719517 C197,32.7126239 198.722707,34 201.11374,34 C204.160648,34 207,31.8285222 207,28.8815166 L206.995849,25 L206.995849,25 Z" id="Shape"></path>
                                <path d="M240.826751,37.4186095 L240.552778,33.3014155 L240.391618,33.3014155 C238.719579,36.4100749 235.91136,38 231.987106,38 C225.67365,38 221,32.5618235 221,24.908826 C221,16.88801 225.846897,11.2362614 232.462529,11.2362614 C235.963738,11.2362614 238.445607,12.3950874 239.843673,14.7206495 L239.960514,14.7206495 L239.960514,0 L245.782431,0 L245.782431,30.501249 C245.782431,32.9810575 245.842866,35.3026644 245.999998,37.4146545 C246.004027,37.4186095 240.826751,37.4186095 240.826751,37.4186095 L240.826751,37.4186095 L240.826751,37.4186095 Z M240,22.7520071 C240,19.1070473 237.589033,16 233.908503,16 C229.619224,16 227,19.8015165 227,25.1565566 C227,30.4072257 229.719347,34 233.79236,34 C237.428835,34 240,30.8367529 240,27.0914362 L240,22.7520071 L240,22.7520071 Z" id="Shape"></path>
                                <path d="M282.287865,38 C274.835793,38 270,32.3525499 270,24.6855876 C270,16.6953437 274.93793,11 282.708198,11 C290.062061,11 294.999991,16.3760532 294.999991,24.2625277 C295.007848,32.3525499 289.912783,38 282.287865,38 L282.287865,38 L282.287865,38 Z M283.055682,15 C278.756255,15 276,18.9849268 276,24.5531869 C276,30.0150732 278.814021,34 282.997916,34 C287.19419,34 289.999958,29.7409561 289.999958,24.4427218 C290.012337,19.042205 287.256082,15 283.055682,15 L283.055682,15 L283.055682,15 Z" id="Shape"></path>
                                <path d="M326,37 L320.166228,37 L320.166228,22.3718084 C320.166228,17.866294 318.385817,15.6115727 314.877479,15.6115727 C311.421625,15.6115727 309.051782,18.4947877 309.051782,21.849373 L309.051782,37 L303.218009,37 L303.218009,18.8090346 C303.218009,16.5582414 303.161489,14.1424687 303,11.5224354 L308.12726,11.5224354 L308.40179,15.4544493 L308.563279,15.4544493 C310.12568,12.7322858 313.315078,11 316.871862,11 C322.37862,11 326,15.0891373 326,21.7433147 L326,37 L326,37 Z" id="Shape" fill-opacity="0.981904871"></path>
                                <path d="M365,16.8023312 L358.571681,16.8023312 L358.571681,29.4197426 C358.571681,32.6331957 359.696334,34.2359155 361.969912,34.2359155 C363.001517,34.2359155 363.863211,34.1277319 364.563085,33.9674599 L364.724905,38.3549053 C363.592162,38.7836328 362.07914,39 360.193932,39 C355.590139,39 352.835145,36.4877368 352.835145,29.9085721 L352.835145,16.806338 L349,16.806338 L349,12.4749879 L352.835145,12.4749879 L352.835145,7.71491015 L358.571681,6 L358.571681,12.4669743 L365,12.4669743 L365,16.8023312 L365,16.8023312 L365,16.8023312 Z" id="Shape"></path>
                                <path d="M396,38 L390.116469,38 L390.116469,23.1534884 C390.116469,18.489852 388.322461,16.1319239 384.775217,16.1319239 C381.725403,16.1319239 378.883531,18.1684989 378.883531,22.2978858 L378.883531,38 L373,38 L373,0 L378.883531,0 L378.883531,15.6458774 L379.001773,15.6458774 C380.85694,12.8059197 383.539798,11.4080338 386.9688,11.4080338 C392.575075,11.4080338 396,15.6940803 396,22.5027484 L396,38 L396,38 Z" id="Shape"></path>
                                <path d="M426.80061,25.9417864 L409.543834,25.9417864 C409.655348,30.8530588 412.897216,33.6246482 417.696297,33.6246482 C420.249168,33.6246482 422.594943,33.1967116 424.669898,32.3968301 L425.565992,36.400237 C423.120651,37.4680788 420.237221,38 416.883838,38 C408.791115,38 404,32.876759 404,24.9299363 C404,16.9791142 408.906612,11 416.234668,11 C422.845849,11 426.99576,15.9112724 426.99576,23.3301733 C427.015673,24.3420234 426.967881,25.2498889 426.80061,25.9417864 L426.80061,25.9417864 L426.80061,25.9417864 Z M422,22 C422,17.897541 419.981383,15 416.299202,15 C412.992021,15 410.375,17.9508197 410,22 L422,22 L422,22 Z" id="Shape"></path>
                            </g>
                        </g>
                    </g>
                </g>
            </g>
        </g>
    </g>
</svg>